<svg id="visual" viewBox="0 0 960 540" width="960" height="540" xmlns="http://www.w3.org/2000/svg" xmlns:xlink="http://www.w3.org/1999/xlink" version="1.1"><rect x="0" y="0" width="960" height="540" fill="#001220"></rect><path d="M218 0L227.3 10C236.7 20 255.3 40 258.2 60C261 80 248 100 251.5 120C255 140 275 160 284.7 180C294.3 200 293.7 220 294.5 240C295.3 260 297.7 280 286.2 300C274.7 320 249.3 340 250.5 360C251.7 380 279.3 400 280.7 420C282 440 257 460 253.2 480C249.3 500 266.7 520 275.3 530L284 540L0 540L0 530C0 520 0 500 0 480C0 460 0 440 0 420C0 400 0 380 0 360C0 340 0 320 0 300C0 280 0 260 0 240C0 220 0 200 0 180C0 160 0 140 0 120C0 100 0 80 0 60C0 40 0 20 0 10L0 0Z" fill="#cccccc"></path><path d="M169 0L183.7 10C198.3 20 227.7 40 227.8 60C228 80 199 100 192.7 120C186.3 140 202.7 160 207 180C211.3 200 203.7 220 210.8 240C218 260 240 280 249.5 300C259 320 256 340 253 360C250 380 247 400 246.7 420C246.3 440 248.7 460 237 480C225.3 500 199.7 520 186.8 530L174 540L0 540L0 530C0 520 0 500 0 480C0 460 0 440 0 420C0 400 0 380 0 360C0 340 0 320 0 300C0 280 0 260 0 240C0 220 0 200 0 180C0 160 0 140 0 120C0 100 0 80 0 60C0 40 0 20 0 10L0 0Z" fill="#e2abb1"></path><path d="M164 0L163 10C162 20 160 40 161.7 60C163.3 80 168.7 100 169.8 120C171 140 168 160 166.7 180C165.3 200 165.7 220 171.7 240C177.7 260 189.3 280 194.2 300C199 320 197 340 198.5 360C200 380 205 400 199.3 420C193.7 440 177.3 460 166.8 480C156.3 500 151.7 520 149.3 530L147 540L0 540L0 530C0 520 0 500 0 480C0 460 0 440 0 420C0 400 0 380 0 360C0 340 0 320 0 300C0 280 0 260 0 240C0 220 0 200 0 180C0 160 0 140 0 120C0 100 0 80 0 60C0 40 0 20 0 10L0 0Z" fill="#f08797"></path><path d="M154 0L151.5 10C149 20 144 40 142.5 60C141 80 143 100 141.2 120C139.3 140 133.7 160 127.3 180C121 200 114 220 108 240C102 260 97 280 98.3 300C99.7 320 107.3 340 109.7 360C112 380 109 400 114.2 420C119.3 440 132.7 460 138.3 480C144 500 142 520 141 530L140 540L0 540L0 530C0 520 0 500 0 480C0 460 0 440 0 420C0 400 0 380 0 360C0 340 0 320 0 300C0 280 0 260 0 240C0 220 0 200 0 180C0 160 0 140 0 120C0 100 0 80 0 60C0 40 0 20 0 10L0 0Z" fill="#f95c7e"></path><path d="M67 0L67.2 10C67.3 20 67.7 40 71.5 60C75.3 80 82.7 100 85 120C87.3 140 84.7 160 84.3 180C84 200 86 220 79.2 240C72.3 260 56.7 280 54 300C51.3 320 61.7 340 68.8 360C76 380 80 400 78.2 420C76.3 440 68.7 460 68.8 480C69 500 77 520 81 530L85 540L0 540L0 530C0 520 0 500 0 480C0 460 0 440 0 420C0 400 0 380 0 360C0 340 0 320 0 300C0 280 0 260 0 240C0 220 0 200 0 180C0 160 0 140 0 120C0 100 0 80 0 60C0 40 0 20 0 10L0 0Z" fill="#ff0066"></path></svg>