<svg id="visual" viewBox="0 0 900 600" width="900" height="600" xmlns="http://www.w3.org/2000/svg" xmlns:xlink="http://www.w3.org/1999/xlink" version="1.1"><rect x="0" y="0" width="900" height="600" fill="#6a0ff7"></rect><path d="M0 435L21.5 433C43 431 86 427 128.8 438.5C171.7 450 214.3 477 257.2 488.8C300 500.7 343 497.3 385.8 482.5C428.7 467.7 471.3 441.3 514.2 431.5C557 421.7 600 428.3 642.8 439C685.7 449.7 728.3 464.3 771.2 459.7C814 455 857 431 878.5 419L900 407L900 601L878.5 601C857 601 814 601 771.2 601C728.3 601 685.7 601 642.8 601C600 601 557 601 514.2 601C471.3 601 428.7 601 385.8 601C343 601 300 601 257.2 601C214.3 601 171.7 601 128.8 601C86 601 43 601 21.5 601L0 601Z" fill="#0066FF" stroke-linecap="round" stroke-linejoin="miter"></path></svg>